<mxfile host="Electron" agent="Mozilla/5.0 (Macintosh; Intel Mac OS X 10_15_7) AppleWebKit/537.36 (KHTML, like Gecko) draw.io/24.7.17 Chrome/128.0.6613.36 Electron/32.0.1 Safari/537.36" version="24.7.17">
  <diagram name="Page-1" id="RgJ8_A-FB1K-uNUbQLkM">
    <mxGraphModel dx="1377" dy="974" grid="1" gridSize="10" guides="1" tooltips="1" connect="1" arrows="1" fold="1" page="1" pageScale="1" pageWidth="1600" pageHeight="900" math="1" shadow="0">
      <root>
        <mxCell id="0" />
        <mxCell id="1" value="base" parent="0" />
        <mxCell id="MxffgctnnAdr2egR7Orp-2" value="highest word" style="rounded=0;whiteSpace=wrap;html=1;fillColor=#ffe6cc;strokeColor=#d79b00;strokeWidth=2;fontStyle=1;fontSize=15;" parent="1" vertex="1">
          <mxGeometry x="120" y="160" width="100" height="40" as="geometry" />
        </mxCell>
        <mxCell id="MxffgctnnAdr2egR7Orp-4" value="2nd highest word" style="rounded=0;whiteSpace=wrap;html=1;fillColor=#ffe6cc;strokeColor=#d79b00;strokeWidth=2;fontStyle=1;fontSize=15;" parent="1" vertex="1">
          <mxGeometry x="230" y="160" width="100" height="40" as="geometry" />
        </mxCell>
        <mxCell id="MxffgctnnAdr2egR7Orp-5" value="lowest word" style="rounded=0;whiteSpace=wrap;html=1;strokeWidth=2;fontStyle=1;fontSize=15;" parent="1" vertex="1">
          <mxGeometry x="390" y="160" width="120" height="40" as="geometry" />
        </mxCell>
        <mxCell id="MxffgctnnAdr2egR7Orp-11" value="$$k&#39;$$" style="text;html=1;align=center;verticalAlign=middle;whiteSpace=wrap;rounded=0;fontSize=16;" parent="1" vertex="1">
          <mxGeometry x="60" y="165" width="60" height="30" as="geometry" />
        </mxCell>
        <mxCell id="MxffgctnnAdr2egR7Orp-12" value="highest word" style="rounded=0;whiteSpace=wrap;html=1;fillColor=#dae8fc;strokeColor=#6C8EBF;strokeWidth=2;fontStyle=1;fontSize=15;" parent="1" vertex="1">
          <mxGeometry x="120" y="220" width="100" height="40" as="geometry" />
        </mxCell>
        <mxCell id="MxffgctnnAdr2egR7Orp-14" value="..." style="rounded=0;whiteSpace=wrap;html=1;strokeWidth=2;fontStyle=1;fontSize=15;" parent="1" vertex="1">
          <mxGeometry x="340" y="160" width="40" height="40" as="geometry" />
        </mxCell>
        <mxCell id="MxffgctnnAdr2egR7Orp-15" value="lowest word" style="rounded=0;whiteSpace=wrap;html=1;strokeWidth=2;fontStyle=1;fontSize=15;" parent="1" vertex="1">
          <mxGeometry x="390" y="220" width="120" height="40" as="geometry" />
        </mxCell>
        <mxCell id="MxffgctnnAdr2egR7Orp-16" value="$$n$$" style="text;html=1;align=center;verticalAlign=middle;whiteSpace=wrap;rounded=0;fontSize=16;" parent="1" vertex="1">
          <mxGeometry x="60" y="225" width="60" height="30" as="geometry" />
        </mxCell>
        <mxCell id="MxffgctnnAdr2egR7Orp-20" value="..." style="rounded=0;whiteSpace=wrap;html=1;strokeWidth=2;fontStyle=1;fontSize=15;" parent="1" vertex="1">
          <mxGeometry x="290" y="220" width="40" height="40" as="geometry" />
        </mxCell>
        <mxCell id="8AOpllYiCJQOnSZghfmC-2" value="" style="rounded=0;whiteSpace=wrap;html=1;fillColor=none;strokeColor=none;" parent="1" vertex="1">
          <mxGeometry x="80" y="80" width="650" height="280" as="geometry" />
        </mxCell>
        <mxCell id="MxffgctnnAdr2egR7Orp-47" value="estimate" parent="0" />
        <mxCell id="MxffgctnnAdr2egR7Orp-24" value="$$n_{top}$$" style="text;html=1;align=center;verticalAlign=middle;whiteSpace=wrap;rounded=0;fillColor=#dae8fc;strokeColor=#6c8ebf;strokeWidth=2;fontStyle=1;fontSize=16;" parent="MxffgctnnAdr2egR7Orp-47" vertex="1">
          <mxGeometry x="150" y="300" width="40" height="30" as="geometry" />
        </mxCell>
        <mxCell id="MxffgctnnAdr2egR7Orp-23" value="" style="shape=curlyBracket;whiteSpace=wrap;html=1;rounded=1;labelPosition=left;verticalLabelPosition=middle;align=right;verticalAlign=middle;fillColor=#dae8fc;strokeColor=#6c8ebf;direction=north;size=0.5;strokeWidth=2;fontStyle=1;fontSize=15;" parent="MxffgctnnAdr2egR7Orp-47" vertex="1">
          <mxGeometry x="120" y="275" width="100" height="20" as="geometry" />
        </mxCell>
        <mxCell id="MxffgctnnAdr2egR7Orp-21" value="" style="shape=curlyBracket;whiteSpace=wrap;html=1;rounded=1;labelPosition=left;verticalLabelPosition=middle;align=right;verticalAlign=middle;direction=south;fillColor=#ffe6cc;strokeColor=#d79b00;strokeWidth=2;fontStyle=1;fontSize=15;" parent="MxffgctnnAdr2egR7Orp-47" vertex="1">
          <mxGeometry x="120" y="130" width="210" height="20" as="geometry" />
        </mxCell>
        <mxCell id="MxffgctnnAdr2egR7Orp-22" value="\(k&#39;_{top}\)" style="text;html=1;align=center;verticalAlign=middle;whiteSpace=wrap;rounded=0;fillColor=#ffe6cc;strokeColor=#d79b00;strokeWidth=2;fontStyle=1;fontSize=16;" parent="MxffgctnnAdr2egR7Orp-47" vertex="1">
          <mxGeometry x="157.5" y="90" width="135" height="30" as="geometry" />
        </mxCell>
        <mxCell id="MxffgctnnAdr2egR7Orp-30" value="1" style="rounded=0;whiteSpace=wrap;html=1;strokeWidth=2;fontStyle=1;fontSize=15;" parent="MxffgctnnAdr2egR7Orp-47" vertex="1">
          <mxGeometry x="570" y="100" width="30" height="60" as="geometry" />
        </mxCell>
        <mxCell id="MxffgctnnAdr2egR7Orp-41" value="$$ q = \frac{k&#39;_{top}}{n_{top}}$$" style="text;html=1;align=center;verticalAlign=middle;whiteSpace=wrap;rounded=0;strokeColor=default;strokeWidth=2;fontStyle=1;fontSize=16;" parent="MxffgctnnAdr2egR7Orp-47" vertex="1">
          <mxGeometry x="600.9" y="100" width="119.1" height="60" as="geometry" />
        </mxCell>
        <mxCell id="MxffgctnnAdr2egR7Orp-46" value="" style="group;fontStyle=1;fontSize=15;" parent="MxffgctnnAdr2egR7Orp-47" vertex="1" connectable="0">
          <mxGeometry x="570" y="100" width="150" height="60" as="geometry" />
        </mxCell>
        <mxCell id="MxffgctnnAdr2egR7Orp-43" value="" style="rounded=0;whiteSpace=wrap;html=1;fillColor=#ffe6cc;strokeColor=#d79b00;fillOpacity=50;fontStyle=1;fontSize=15;" parent="MxffgctnnAdr2egR7Orp-46" vertex="1">
          <mxGeometry x="90" y="4.8" width="33" height="24" as="geometry" />
        </mxCell>
        <mxCell id="MxffgctnnAdr2egR7Orp-45" value="" style="rounded=0;whiteSpace=wrap;html=1;fillColor=#dae8fc;strokeColor=#6c8ebf;fillOpacity=50;fontStyle=1;fontSize=15;" parent="MxffgctnnAdr2egR7Orp-46" vertex="1">
          <mxGeometry x="90" y="33.6" width="34" height="24" as="geometry" />
        </mxCell>
        <mxCell id="MxffgctnnAdr2egR7Orp-17" value="" style="shape=flexArrow;endArrow=classic;html=1;rounded=0;strokeWidth=2;fontStyle=1;fontSize=15;" parent="MxffgctnnAdr2egR7Orp-47" edge="1">
          <mxGeometry width="50" height="50" relative="1" as="geometry">
            <mxPoint x="513" y="210" as="sourcePoint" />
            <mxPoint x="563" y="210" as="targetPoint" />
          </mxGeometry>
        </mxCell>
        <mxCell id="8AOpllYiCJQOnSZghfmC-1" value="step 3" parent="0" />
        <mxCell id="MxffgctnnAdr2egR7Orp-36" value="3" style="rounded=0;whiteSpace=wrap;html=1;strokeWidth=2;fontStyle=1;fontSize=15;" parent="8AOpllYiCJQOnSZghfmC-1" vertex="1">
          <mxGeometry x="570" y="300" width="30" height="30" as="geometry" />
        </mxCell>
        <mxCell id="MxffgctnnAdr2egR7Orp-37" value="$$k&amp;nbsp; = k&#39; - n \cdot q$$" style="text;html=1;align=center;verticalAlign=middle;whiteSpace=wrap;rounded=0;strokeColor=default;strokeWidth=2;fontStyle=1;fontSize=16;" parent="8AOpllYiCJQOnSZghfmC-1" vertex="1">
          <mxGeometry x="600.9" y="299.9" width="120" height="30.1" as="geometry" />
        </mxCell>
        <mxCell id="MxffgctnnAdr2egR7Orp-48" value="loop" parent="0" />
        <mxCell id="MxffgctnnAdr2egR7Orp-26" value="while \(n \cdot q &amp;gt; k&#39;\)" style="text;html=1;align=center;verticalAlign=top;whiteSpace=wrap;rounded=0;strokeColor=default;strokeWidth=2;fontStyle=1;fontSize=15;" parent="MxffgctnnAdr2egR7Orp-48" vertex="1">
          <mxGeometry x="600" y="160" width="120" height="140" as="geometry" />
        </mxCell>
        <mxCell id="MxffgctnnAdr2egR7Orp-31" value="2" style="rounded=0;whiteSpace=wrap;html=1;strokeWidth=2;fontStyle=1;fontSize=15;" parent="MxffgctnnAdr2egR7Orp-48" vertex="1">
          <mxGeometry x="570" y="160" width="30" height="140" as="geometry" />
        </mxCell>
        <mxCell id="MxffgctnnAdr2egR7Orp-28" value="" style="verticalLabelPosition=bottom;html=1;verticalAlign=top;strokeWidth=2;shape=mxgraph.lean_mapping.physical_pull;pointerEvents=1;rotation=302;fontStyle=1;fontSize=15;" parent="MxffgctnnAdr2egR7Orp-48" vertex="1">
          <mxGeometry x="612.9" y="184.9" width="100" height="100" as="geometry" />
        </mxCell>
        <mxCell id="MxffgctnnAdr2egR7Orp-27" value="test" style="text;html=1;align=center;verticalAlign=middle;whiteSpace=wrap;rounded=0;strokeWidth=2;fontStyle=1;fontSize=16;" parent="MxffgctnnAdr2egR7Orp-48" vertex="1">
          <mxGeometry x="621.9" y="219.9" width="80" height="30" as="geometry" />
        </mxCell>
        <mxCell id="MxffgctnnAdr2egR7Orp-52" value="attack" parent="0" />
        <mxCell id="MxffgctnnAdr2egR7Orp-51" value="Leak via&lt;br style=&quot;font-size: 15px;&quot;&gt;Single-Stepping / StumbleStepping" style="text;html=1;align=center;verticalAlign=middle;whiteSpace=wrap;rounded=0;fontStyle=1;fontSize=15;" parent="MxffgctnnAdr2egR7Orp-52" vertex="1">
          <mxGeometry x="410" y="290" width="164" height="63" as="geometry" />
        </mxCell>
        <mxCell id="MxffgctnnAdr2egR7Orp-49" value="" style="shape=image;verticalLabelPosition=bottom;labelBackgroundColor=default;verticalAlign=top;aspect=fixed;imageAspect=0;image=data:image/png,iVBORw0KGgoAAAANSUhEUgAAAFQAAABUCAYAAAAcaxDBAAAAAXNSR0IArs4c6QAAAIRlWElmTU0AKgAAAAgABQESAAMAAAABAAEAAAEaAAUAAAABAAAASgEbAAUAAAABAAAAUgEoAAMAAAABAAIAAIdpAAQAAAABAAAAWgAAAAAAAABIAAAAAQAAAEgAAAABAAOgAQADAAAAAQABAACgAgAEAAAAAQAAAFSgAwAEAAAAAQAAAFQAAAAARFKgQwAAAAlwSFlzAAALEwAACxMBAJqcGAAALTFJREFUeAHtnAmwXmd535/zbXfftNqSbMvYgiQGDIkDwQZnMQMmhJkWAoTQtOlCIAEnXdJMydJm2g4ppJMUCp3JMp3JVgoJhGQgbUicAiYhJAaDwciAZSNLlrUvd1++7zv9/Z7znesr68qWTDKdTDnSe88573nX//t/lne5N+Ib1zcQ+DuJwMzMxCv+Tjb8b7/RjYmJie+7WDWNi30oivZb+Na62Pf/j+ObQ+32my7W/2KzD9u2bZtoNhuzQ0PDWx5++OEzm6X5m4x7R8QV3XZc0+g3r2uU5Q2M8nX9stxL2FYWxUS3jCHr6zeKFW5zUZYny7L8WhlxYC3iPu8kOPjzEUdN97d5XXPNNd+9vLz4oWPHTkxtVs+mDKSxu4eG2jEyMvSvyPSzm2X8euN+OeLK6MSPRBGvbUdxNSPb6Tf7rTKKgvrBDABLoG02o73W45m4fhm9iB39Iq4D6Of3acRQo1FGvw/msfrTEQ/3i+J98/3+r7074sjX28bN8o+NDv9Kd21lgm9Kt00479qUoVu3bv2e8fHRO2emp7rTM9u2f+xjHzt7Xq6n+PKeLXFVv9d4ebtf/sNGES/oFEWstRoA1QfXPiAW3AHOnwJKc0tCn/g+YPre63HnnVv2pmw0eAZogp1pEmBtdCM+Rdxv8PxHvxRx6Ck2+bxst976Ha9cmFv8wLETJ2N2dn7r7Ozs6fMS8LIpQ2nUtF1rNhqtfndVlv7c4zNezvsvTcaW0aLx7lZZvqZol81C4oGo4I0UvYBt0QAYkIKBDf7JRsAUNCjZE0xBBcUu9CyJ64KY4PZ6/UxPW0mTDE5gG0XxAgD+jkaz2f+pfv/9a/3+W5CKCwC4nH5MTkz+3NkzswhNI8a5NgNU2l5wMept+khH+jE6NvTmF7/4xZvqiwsyPi7inTNx9a9sbb57ulMcnRguX9cZiebwUBmjI0WMDFP2SMTIaMTYCMAOE7iPj/otYrgOpB0mnfmGiBtBWXY6iDr3oaEin9sMThsw29Rvw1sG3iFG0ej1mkMldRfF0X8d8e5/GXHV45p5Sa8/9EOv/ZlOu/2cXq/HgCEVvd6mZNwU0F6vUCeZycwzYyOtD1xSrRsS/eq2xk9ONouDI53+m4dGot0GFIEbm2wBZAXq6FhRgTvaAMxGjHoH6BEBB+jhBJn3Yd4zrgmIFbDDxHU6PBOGBRY07YygCqa9Vfyz14KL2wJr3wzYD//zRuMn+XTJ1x13/LMXbZma+o+zc/OpelRKzWYTGbnwss4LrsnJ4SubzdY/arfadKATW7duedq+6592eP/9X73ngsSPi/hvM/HsV04WHxxvxT9twKJk1oBJQ+1GdOjhEL1v8zDUboF0GzB8b0eL+trEIabRbhFI32yiejBVjSaijf1poXMbMLLRJE61ARtVIaoJ86knCtgguFi3FH8SEl09q3Mh+EueV4W7Px1x7HFdOO/1jte/frIzOf7RxcWl6cOHj8Ty8nKsddcAdvZtc3Ori+cl5mVT2tKuI2lRUWBLS0tpXUdGRt992223ffjOO++8aAN+ZXu8eqRR/E4DXJpQZaSDKLYBBJ3TandSFH1uNAENINSj6s8CRAqVpnqwq06t9GZJ/SVSorioK3vdleiu9QOcY7VnuTClhWFbLWPNclcxbpRRcO+jaxNsDR5gWp/GquBdA8b7zYS731KWr8cj+N3HA+P7DTfc0GlsGfvsyNDQ3iOPPAoWizkwGMjekSNzm+rjTQFFPRwqCiqmE8vLKzG/sBA7tm8bnpoYvgdQn7sZqL++o/GrY83yDQXDr45rw6oOPW/JQpgn+1ot2SfDmnRI/Og8HeVHGiCNVIkIyyYNTB8wVTvtvPdjjUytRje6rW4U3X4FKHREnKMB6msWBeAytMt7wcio7wS0S1AV9Ab1WSfAtkeK4v0/UZa/9s7Ahdtwfdd3fVdr3/XXfHh4eOi62bm5OHbseOKht0Gh+rsw4MJrU0CPHTu2sGf3rkf7/f6VXRhz5vTZmJyYQMeNXtnt9e6kmBsJ2Nq8il/fVtw50i6/u9FGp6V4N2Am6oLQwnq0YWRL0YX6dRBIAZWhAkIzU1w1hF59BrOEtdQH27ivrsHGVr63ELkGZr65xh01UEC9gvItBUzzwptNTyDf0XYFg2F9qgIKzDTW3eUZQ/aGH4+4/p1leRvpy5e//IUz0xPb/mpsZPj65eXVOPLosTh7brYaZNIX/eLLWcAmPzbVoaabmBz/HhqwrwWjZEsLMBgtgdqxa9fO103tuOJPjxw+fHbvzuLPRzvli1rDzbTAQ9yHMNGjADnUMVR6eIj3DtQ1tPPOe+pPVAFAyeJmvgs+QTYLQAGbZSZxqS6S3bJc7gEUwBkcEfBJfepDAjkYKOPpQvUjH+yh6TNVUg1mXfvRiNumX/jtJye27vrDiYnRa9cYzNOnzsTRY8dSUrtr3ZSYtW73g3NzcyS/8NqUoSZjIP6CVnyvDO3wcubsuWTXKL7OyPDIvrFe/zNvuu7Kw7csH9vXThemH8MYGsEaBkiNTNs7Ii84tcHRX5SlDfSm4qceTdbQYTiZnZalMrRfdtIH7XZXo09nGl3BhZXkS/1IWRRG4JvxsDWRVdSzKH88JkrrMlWlyrrMYaK1RisO773qhaPbd75wFN9MZi4sLsS5c3OBQUop6SMxVYnFX2a2TX5cFFD02CdVOYgbkmWDVxNUxU9ApoaHR+6/+vp99y/uitvjZDy/OJPedrIShgpoB0PU0XrDvDagJpA10zREACIwuiECYMcsXxL1MUgp7oh2D3dhjTqbALq6VuXTojdWVyqWkgHHndxd8gq2JSZeVZcFnv+UnpMCRV192oWgY0jU+Fgz/voZN8bSjp0xinexgno5d+5cgjo/P4/qqJipocZCw4Pic1XBF/58IkDv7vW6i4jZhIaBZypYBpSKYSOANoYKaE1OxvjKWow4y5mDxTS7jWszPDqGi1SxsyNLAVcQCoGAlTIrWUbneKh6DygFIt5Mt6QXLertUkaPAW32m7DIPIi76mF5KbNVAzLomFQvBVW2U6avvJQYKl9dGvAb1OeBJmA09WG3TY/E7unxWEUtLeFrCuAcQNrvNfS0xllj5D8k9quHDz/yQBa+yY+L6tCFhYW1ifGJbc1W8wXmk00C4SjZqB4MknVbO4149b4rozh9FKday95C5FlYGR2lsehQdSfAqx8LpjreG6gFQSmM8045hcwlbwPjgvVZ9wZa6kwZBpAi6ICmf8mzYOZFezQ63ABKg8MTTBXMjKpuOQA+mguvCjXkBKIZM1snY4o672mMxuL8HKK+iHvWxd+smFkRCheO8ta6/Tcx5dyfBW/y46IMNS1s+lkKuwOd1e6hS3t0bi3FCjYyehLiedvase2K3XHic3dVepOOVcYH/cmkoAFYDXRpA7BkZzkAywECqQRJgFglcpQASysKI7qC6qRd3YhUUK4u19pKBZT2XBYqunY04WSwJV+7v6SuguGkwX3zLs6uB+i7kpypqs6+6wMspqwsxz4YesXRw/El9TZ1WqZ9VAWlGmKQ1rq9Bw8fPvzBTXBcj7ooQ03BSHQnJydmYELF0mQEHef/MiO4b6gfb3jJd8a5j/8hoo7xArwOoA2PYLjGxtJlasJQmVnIPsS+AOTCu+wUZAYJqgAW4pxMVUcOWAmQslDgvDuAhQzlnhOCBNKWpk+ZHRetHBwNCIAlWUkh0F6Z14Fk8EzbgKUNdG4TXXrD9h3xyZNnY9F8AKmoa5Q1RgnsWu9nzs7O3l2VtPnPJwTULJOTU1+k5jfCkk6uSQoqFTxvuh3/7hW3xtL+z0bv0a9FB+C05h2U+ihgtgkCl+LNvQlLaxFvoBIw/8neUhAVewGFhd5TNmUkddX+Y94FVZVDu2Skd31VgUmkADuXAgUVQLy8mU4m+uCzka5RUTr5KikpF8/F1PaZeN5wK/bPLsY5EuqjVipOYLuHvjZ+6B/HiY2+goWdfz0poLB0bsfYyENrzfarhlH4N8RivOmbd8arbvm2mP/Cp6N76ABMxKrDNld6NFbD45OM+HA0ZKf6EgCLOiQzKzBxLisgE0w6yLtgpr5OL0A+VSD4lEHm5T/iBdL/BFkkUMY5XRUI1p0rZvLdRJUHUIm6XoXLgV4uAanAuvOnIcNIPH96IsZPn4zTK92Yx0jqwk2fm3/poweXHs4MT/DjCXVone/HZ4/9cGMCXTk1Elfu3oq7ciaOfeR3YhgQh0YnKpeI3jozGh4bjRbrbxoZ5+zJSkBVrI2r7rKxmiUlgCLCleySoQASXQCGpV4yKcEj3vJsdIogZZpH0VQ61PP6udZToH+rWRnf8U/VLA2K1R3LNQSIaVVreAAawuVlLDiDsLj4IIPfir24ajuXVuLoSi/mmWktzS7/wmcivicb9AQ/KPKJr3cMx4tGOo3/MNwui3asRG/pbJRLcxicYYwPhgdWtWnQEKCNjI/H0PhEMjPZmbpSMNWXA5bKSjuvLmRAmJyn6CPfgEAv8wJI/ruIUfuVpK6+0GkNl2OQxgJAWRupBgG6ploizkujAuKkq1hsWVXIz6T1vcpKsQnoEgZsaaUfs0trMbeKIWb7ZXkZRMvYy3z7/7DcdrDKvfnPJ2Uoo3hH2ehDFnUa1pZ+OfdusWzeQm7AIx14/c5hXCXn21pyhz+NTALIuBFvnN+Ml73qfkmYBHVOLlCUzcqHkkwdVaPVkyXLd1CNSAwWdy2/09E+TBzi2ypldrHOGi9ZarkyVP85Z1A855IfYs5jCoF3dWuPhZSSUenVuwHkJTpYtIoVv5GHdhXNsnQn+BNVqzb/WVNi069vHY/tgPdqFzYM7Tai5TONb8M+p5bDrAQPjcFMltUbsNDW5pw7AaT4gRUX+dJOJSsFlWeCRgmaJ1u7DFjfXhKXbOXZ9UsQAeSqLAHv6vxTXlr+AXg54AAs0LpXpk/PIT0GBp7VM0rP5jhmVuNIauHrQcVEVEuBMHRtGesOQx1ZSqvkAyxeHbF9U7AGkaa96DXRbf4Cfns12jDIRjSGAVKLDpgtxDwddcWXjqjrKmtthwbPgOYzcx1AAPBUZqQlTzlQBaXAAobsZmGbNFYqmIhkAsndOMpJZrZhP/+caAhq+rR+Ayi/O5tiQlL5roO4qkheuLLIqopsRy60KCaEQj29riJI67t5+EbLYjziP1nGxS6K3fz6eTbqEOsfZC+8AlLxhp10k4bTeABxXdOOC4KK/jGXx85bNE0ZdFgvQIAyTQIIKI5QslDRVUVUIFagJxLZYSpKoGRwaZ1exsHUZCl15AyK7zXAWXvWjSRYFO1nWLJJZhc/gRLoXLEiUZ2HWqo1VhNahum4qwaQ2Nf9MNjwuOkl6JtfLXcMG0M5mjYIMOvGpvW1IgLRWVkTtqZ1R5cWuEwo1tSVzq6SNfQgu0QPklH2ZMBsO5uuDuWZJv/7Pbvie0KR+hptmh1XATs3l431Vel52pV51Y+KOPN1fOLxCbpKBmdQzs8XWX9YXmBFaYG6AdcdVNY5rSovvQofZaaqQwPoO7WxthbfQfjfhAuuiwLKzsXtFE7TaBQPzcHSmAYpK+KnFenET01NRcF9sLPmdmSUzIhKdGpu72pC11aDSXIUbCMwW0BPtimZPvKtHpTsDUzBfcw6yJXg8Vp1hgj3oI0XRy169l8UiEzhNAIx7bAgPrN3LzO28WhimEpWkEqmmItLy7HEXH2RXYjZkUWavMJCCO7SfCPv3TXKtOMUo762/ektDPpNnRL+ZXy+PEBp08tSp9By2+ullffFikZY8JgEGNZGk4k54wHAEjAb+KGlMyNnRDSoyeiqJ4OTNCWdKQ4fBhCYe8UVUUxPs0BEZ2UAwToTMh4r6AAcsGyDCxo516ctMoiW5daGzTPAoyhw28afdl0MA6igYPp1NqOxQt20QRIYskALBeweaZhJx9AqYk0l+rWpjmw3RShhXnU93F+atM7Y839UKc+PC042bMO/fLpDYZ2WlHfTUYOrSM7X1ZsGQat1Y1pYrbZgAmqyVeuvNdd6p/5EnwJs+bl7ovcVdhMAR/+l9it9deFS0HIPh0rrKeV6HGnSnco26X+ywM165sz1+2J867boOMFA9eQWTE59KwOqvtdvdqXM/S4XcsS3k0a3GkxnfA5uqjib4uDZKILqBNCewQbUNqt+/LWpyKMBX9pilEr2iFBv6yNDibnwcKQciv1HWS9sLGPx52N0fCxmtizH9h39uHLnUIxrvT3FAIszNzMOxTCFBWZWOhSxAuiVBx6ItRMnYuw5zwFUOiE7dA5pfAUiVJW5qg2++SxzewCYy3i2iU/D27ZFG9WTDFRS1M/oDqVJMqiFm2lYSczzIvnn0KOPLHbjCCJ/Ak00j1ZaRTfLyDHaOYKaqsVftZMX9QvaXLCuHvHbVeRjPzcFtNdovLRH5XQ9Uzo4Xt6WmIq9/85D8cx3vI1ZEYuyiNKpkyfj8KFD8einDsfsqf0xXK7F3u3T8cxrd8S3Xrc7bti1NWZGBm6MAACMouVCh8xeeeSRWDpzNrbfcjPEBASmkCViqKFS0QpyQ+d+AKJAy0gXLxRPj5k0W6y5iixxJUCUbIFaVoG4L6M3j5yZi3uPEU4txFdm2XjDkS/Hr4ytV+2JXTdfFTt3XhF7JsbSaC0fPRTb3v/rceLRSjTtdzV4SY8kFXblJdR1aYCi857Td4TpfA1mziLQoWfOLMc1118fz7npuax0T8eWLVtiDL2ls++1urIa52bn4o0/8sY48KVT8b7PPkLnlmOKz1dPDce379oSN++ajBs5QYK3HWsAoo+5ePx4HL/nntjxrGdXQABM+oCpXwFY4ATL9ACdCxv0dA3wOqqc3mrwn7NSMI95+WePz8enDp+Je08uxJHlfszDqx77RovLnMW56rp4/2/8BueTWBVD7NWhLALFSSTlkUcficOTYzHN2sXcibVYgJrSSkBrvZfGsNl8ru15/FWhsCH2X9AmxGRPnnLLeIujMAuk4hUa29mzNdlarRd2k6XpoiAmbh/Pz82SdJVR35ZsZFgS6AfZVrj7s4fiF+9aiKvGWvEDe6fj+3ayQypQSMQjn783RrdujfGZGQbBvfcBkNSryqgC9dkPGCoIq+wr2cIGauIQLPy9Q4vxvw7PxVzRii3TW2Jq69WsxuONwNQltk30KA499GCcO3smpqcmq5V5BiX3jWwHLO9BnB42ot3EgCrr6AyrVPzFIavvdnczaxrhhMQSn9avCwAl8SRKlwXtQWYrUKXxQYly3331+IlsQBoR4rysyxmHWx779+9PV0tRq4xIdWBB3TQ5PYXebcej7N28/b5T8enxm2LpS3fH7WPLcct0Mw58/OPxzNtvZ75u56hYhtoAQR0Aq45dYn/r1Iljuaj9wYdOxyd7U3HlTS+Mu07fHbuve3rsQmKsW6BWUEsyeQ3XKV0g2nvffV+KfU9/OuqAkzHJF4AC0FylX12NFu6dM08vy6nWBQYRxHFGirMcJf7fkwDK2tA4gKKyNApyC8HPUeHO+wSisHLgEDrvTHTxPW2w322Ul472HGCdgz2qAZfLtNQ21MULneouoVrA6Ma/fdvb4uSpU/Gb/+N98Wd/8dF4dRyJPbhVM1hs9Z+jWVCHICo1tsETJceOHo97EOePjH9TfOvrXhP/5bWvwvFvxotve3EC44aiOtd6DauAKahVW0sc+oUcdEG0jbZrFSAFv3/2ZDQWGQAWYRjWZIs6XdbAm5RObg04xkz0/LNRFzC02+kM97tduCS1/Wknqr0XzwuNkmO8XImzX74/ptCfHJOkMRgF3BEbZ6P37r0mDZVVu63svQLUzrHoSzovzltyqm4kT6W87tV/Pw4879vi7rv+LNqf/bN42ffuxMFn9Qgw0kANwF3l3VWu3//CiZj+yX8fP3HTTXHFjh0JZn2Q4ujRozHGYCs1zozUkQmsKoR/frj66qsSQNsi2A7AIq7cAoztHPwKy3cQgP5qR3QLszB7IqgSqIrFITr/IuX5V7G6irPIySb67Noh7cdFsWE6vdUi7NOuasfxj/4JCpsV7fmFbIxA2mhHmkNWCfQsx1fOnD2bjF1C/GWoetcgG27GqitKMknWDaMytlz/jFg7eYpNK3QjAMhSrb51W7Yq4PTsAvlH4qqnXZtDbrkyT4m45ZYX5hbwGSSIzYacFa2SLwdUlrO+OQ7YtlE2GjwEZj9mZ8/FucWVmPzCX8bxWfxNDHOCCRiW7+VPQSW4hnIBIS8AlESAmUSvDAoRWtQ8Pczi6xoN2g7Ry7/68zj5xS/G7MI8jaHhjKwGwk5zBire+tM/HSdxpzxNlwofZnr3u2xQwb/pTW8k7zzvVcf8xvJjzJXsrgJGoYgSV2LgegyABx/cvj5xinOakxNZlgNjeQKjGP/Ym380Rdn3ql7yZL2wlLafOHUy/s1b35qSYT7zaNzOnTsTp1FVnXs+EcVDuHFYPt0zkKyAFMR8ElGe+OZ8q46q7xcAqj2lGEagevBFdqoHFXmDDd17RSse/eX/HKc4lXYKHXgWJtqwBQCew8q//OUvj3f84jtyGU2w3eteYC5vR3fv3h2/9du/lcB7QsNQ5V3Az13RwUmrjeqhLllPgIXqXsVT4hQM3hxgzCUYs8kuy1AFvfe9743de/YMQKZe6rYNLum9/e1vj5e97GW090zWe/bsadp/ksE/FfNHDsWVd/0Bjj5irZiLAyF3UfOt+pHAKvpAsyE6Hy+gLImZ1qRBzwQJKNm6rNSoU7ocI6RdsXNrI+YfOR1Hf/O/R/mjd9Dp48ztJ/CxR/P4jZ279dZb47nPfW587nOfiwe++gCL0EMpatdee22K0JEjR1LcTOuAnGTmMrr/7tgzwnIgxk1L7uDJlEoHV6K7ZYrZ2NkDcfpL90U8+8YB65eoewQvw+M/Q/Gud70rDhw4gDW/Lxm8b9/1ceONNybghzF6SpM6UzGXEEdn52PXH/9OHD++GvNrzLQUaJiY4A3uCe5jjO2vdjpasfMwvYCydwT9KYr7We4fG2YU6BsnQXC4sC3V0WuOYDOrHOIwrXP6+768FGvf/ZKYfOVrWCLjyCN7Te4vuVhcLyrom9Zuh52QpauI8zJsW+Ag1iJHeFaPPRLjn/lEXHvg7vj2W5+foKh6EAxEFpFP1eHJYeIA+cjJ+bjrrw9FcfsrYuwFN8fI9p2sLLF74E4CdRsEd5j2OB1NdsNw86tzVTOK+zlUziwM3f7Hvx3tz98fB06rHyEQffdMqW6oYZXnPqw1jvmDQLPyV34Tpx4Ob0T0AkCZ9E+NcQ6d3/+ZHKZyV+zZqq6OKgKsS50C2/Zse4eVGw7QHzzMPvb0rmh+/+ujde11CYYuTDrCWRtWnobo9tiZLsto/XOno3HkYAw9cG8MP/TlmFqbj+uu3RNX7d1DDr0KdF6Cp96EoRouVQB6VCOjpV1kjeCrXzsdh0/hmm2dida3PCua3/zMaO66ijNXU5wFYAubdrj8aEfT+FGWR2yWmdEtc7qu+ZV7Y89dH4rFR87GkdMABlS2dY08qr4a0B6D4vFGT0EbODE2ywG1q3Hsz/G6fl0AKF+KH280Hhopy2s6FKzlHWK3bIgFUpmqYz/EoonekGsfnlsahoEnzzCnP40EsEDR37KDefIkp0RIwKg2AKfB9LO1tBDt5bkYJox2l2OMad/UzERsuWJnTM9MkZZNNY2QQBoGfqR6VOHTuKRhkrWwvEu5rrYvoyrOnFmMs6eXYB4goJL6rs9OMuMam+CIHS4U4CIm6c82VtCn82ejc/p4tM4uxJn5iDMLAsiAy0xAWGco7wJsXAI5uPN88H+W5bW8qgnWrwt0KF/wEMr9uAXXqHHTZVJ/oky7LDjkuXZY2+hzzgh9ijIyR8zMDOEPjoOfMxRO+/aw0jTSTgyxodaGzZ0J9Ft7Kwy+gmjS8dkRlQkrIiErAFIXpb6n/6i7BpgJsszV2hN81zNw2utvkHT4vR3TcQYJNnPga24heucqdw/ngPR1YLYHIovs/a9yVoos2RD2dhlE6iaIUiLFszikq8Q95/G0kzbeXyfhvn5tBqh0/jgdvd2Oeig2LTxMFVzamgcGCnYGnRWlN8Yvb+HjJLCQFfA48AD71Jt5jJG8TVUAdy1miiy90JJqfBRnXphiKnAWI6AE3/O5cmEcVCcG66ogga10okAm0MnmCpjcqmHUBgKfgLqQLIBuHee2B9+xtRWINZC0MftNW9YBdKCJdyGn4cgUxcdo3DqQ9cOmgJLhIxT4C8keMtH1aGUHbQiVscLgaYwepy4UA95ilcrUmbXK1jtooRr8hYM0UHzTONg5HWbLdlrrBc7ZWKQ3wSIpYMIy3p3PKwkeqxER29KHlSk5gguAFdC0hUplYvqPuPwy1z5nWtqT/RcDBld96jRWguSgARRJ1oG1XXQo25WSwbPfUx35rd//sLfHX1WPHh/L+1sajTNonWl+Cy209uwQVbpT8WVPAmPqPhyrSzyjXzP4azRYV2csnlr2IILg5RlP7lr9PJ4jlMluqieu6inNtdP8q8SuarwICYhx6lABzhNx3gFYQ1WpANhrEYMgAwXXGVaPw7o9BsXfDOlKCO5rTFKwj5RBoL8Sg+TURRr6u/FZA5WGapCOLGffW5YzvF5wbcrQTNXv3wlLX2XBugroeZiC6OKfUT6Rijs9TWB4z6Fx1NFppDeUnOoQwB6/CpMr6YDX9Mwn2eo9dXJSjswWwPxJXl/IDyIJZKIkMDJQq1/p0PwdUFkKkkRnPrWHz94FiwPcmS+/I9u0Pv1pf385mUtVJMv6vSvqyVjuqqf8RlvEwff8VpZ38rrpdVFAcVf/CHa+ktEq/N1JR0iBBRp0iKOvKhhcdr7CIgHocwRDceszA2i16AKi7kZdinuylDLIqg41m5djoy4TWvXnOriCaPncEzjfAXT93XpMjy7MRZx8lgSUbTsNoKHeTICTucT53XKpW9BqUDWiSQjrGcQnmDxnF80U8RHCptdFAUUE7kLUWcFqdBQtGSqQTbZZdUvAuAo0sELT0UPkrU4DQ3OSTVBD45QHGYhP/UnnXD1vYcwEtrpUA+sMyDIr/5Ov1A861SDRn8eWBAVG8PSTTCLwMpT4mrWgkbsNtovaJEbF8op1vtNHyqwATO+BOI1PAkq8R4hyAHmmjWtI7CerNl/4MwX1wugq5g0RdwPqt7kLqC5FbVaB9lc7h+wGgkgHz78JOO7doz4zGO/JG+fd/r6mYDmX1sl2O7o6LKFxkl0U7ABxlzPZd6LsRLUeWw8O73YW4GSgS2LyXhDz17/XwawYyecci7TqA5aiIVLk12dBAzCVNployGfa6b1Op44VYO6f+d2yvInHTa+LMtTU7LX/FI2+08IExK1UQxMfVMCssYNB6q5iLDwIAdCyVNY43xeoHvcmjCkwZi30a607Lc9/+R+ASZ0NzhEmX1phwSOkSCdwPtvpSu30rIt36zENpARc1JMMJU3qX3WlYBLyThpBEjgeK7bSlhRz3tNd8n3wPdPxThXZdyr7KR4vej0hQ831xqK4l9Miz0p20hDmPvkr1Fr9NptsuJsJHp5IHpWpfmOYyqGmjOX4UcYnS+0mPpL4JaDimYaNB1vsO7fHmClYgsbH/AAAphMs0eE5mWkaQBTQjObuqpiHaf3eU00JNARQQwlaWnJGQxZqbBR9nwXQ72sD0DfOmBjcL7yvLJ9NkoteT8hQc62U5X9l+v6rslQeGXJLFb2S28A0NM910uPs86DvaUhI7D6Be+QalBrMLIMPgsoPCwSbSgKSbtKfzhrHA3fe7TBleYpEK4+DKJ6UW7NY4CsgNTj5a4S0TXHvI1F9MieoFKluzj0J6rYMsj3GWOpRf9bx6tba8gP6u0j6hJctfsLLnb3JojiCOuTXFAY6dHDPd0roIs7julMylh6rN2WsB8w8XKC+NE5cdOLtRqoMohJPmz+I8FsFJHH+p4MCXzETJvHgbxk7YH6XleIrM02Ti+EAKtA99oRS/KFlMtNBQclXxu4xsffbqjoK9GsfVAIJ5AbmcnS73PX4XU6SnXdRyhNfX6IaOL6/3Wi8jnrzchQy2CmefJ7D3xyhV4qYIDns+YUXQZFhBo2ICeqoyrcjjgiB1MB4l23pCpEtQZORshF9oZPex7InWDWQpNdQ5SI46ZKZA1Z2HQCalOJNPWSpGDl4XmLhpM2o1OKf90Ean+3OWqPx2g+UJQuwT3w9KaBm/3zElwH1Zuay11l4silRqyrLX4Ql+iAbbttZLElnyISAUek/ARyAaM/8BJ0ENXtqOjsNVYziWBPvlR9ZpzG/p+tK0lQ7B9xx2pOd9DpBH3yTresh8w1ARAqsPoODyvMJDjtMYbGWCbp2Ndj1fZD+ox/o93+O5E96XRKglsKB/S+C0RsQNaVW+uTI+ejzED3Ch4+HOCK+lbXGFFFanEAST7/SAjsEgiQoFcj1e9VRgai+C2oFmroz1WbOesyrOPsdkLlX00tXxJRav6kaZKGD4J209d0yAdMFwSNsl+yEAIvQOQ2V30yX38nDnWb3WFx+DUtLR/n0pNclA8qv3x59JgGf9BVWWl+OspeVuyA9Qk8+NcMfaOLXozUg62kTRMAibYp1foORJEgAfYeVjkSCajygJ6galUF+DUuysr7DzjWeteDGO1BgOgCtAjMBdXJBGy1vGaYe2LY19rIpt0R7N4KuiNd6VOJg7X/s959gZkSS865LBtRc9+LUPqsodGqfTptzJcZ4r3oa2QbUPWwZ/wkNHsI/nWSDTTAETuRq0a90KZ0EAHVjGhMS5jtpZWXFMtNUYCUr6b3xFag8814y6zKNv2eU4FFV+poCyLOGJWdC3I+hlh5kdf9Zp057gi4BrgFdv5PP/vH+4Q+Epzsv/UrpvfTkEf+EP/aAgj7IMZQZR0P/tMWICyT7UNXfTSLO2dVX2WN6cHQ4bufozhjfe/4NEkiYbpcWn3QkS3VgQ3zOKyNzyBgAUzkWgpJj4rjkwFQWXb1bibYMzHSkdzqZiyk853YJ75/asT1uYCF7ivMCLGdXFtx0ls17zcyUChbxEfVr/jBPLvLxEq+6C5eYvEr2AxxgG8Lh523ahRP/CFXeifC3g3VuhWGU55Mw4s9hxHUcJLiBbWQPbVW+k66T1QMHZYihV3WuMxHzjf+KKY8kEECVWp5ogaaCQBXcAdXvvNcss0wnCAuI+oMT43GCbZDnc2SSrc5YVvz5luJd1VI59YCbYJblWUT92X/wFP7E21MClDbEP2i1XsQfCPiEfRVAAXVFCfeqYipxMtYz+X47Qqc+yX7Tbk7A3cLf8ZhCVvX1dKIVsIqHlQMhEwVT5vlPwPzvZYdz4aJKVOlF46mjApgBJc0s5X5m65Y4y8HfF50+E0OecCFdshFA3ZsyT22MHAjfnVqzIXfr73W7dxF12ddTBtSaXh9xG4vGH0ak3BjNFSnVgADm+wBQG+niin8I5vPTk/FV2DKFdb2ePZ/dbLaN0TmXAsAuRVY2Jn6DODtqQ+28cq9Y52yGuxT1myv58zjnRznff5Dt5CU2CJ8OiPtg5TnyKM5uAzsgOVPy3WfuCSZlUNoyuvf7PhRxJ69P6bItT/Uyb/n9MJXznZ+wk64kyQ7ZphrwnuAS77OMzTie5+nwvTPTcQAAOrgtT0MdXM3pjh24XMMA7MCIp8FL9mWF3I0T5EXCScp5GBYeZJC6APoMyriBPzhTsO8uI5OF1JuqgLuqQVG3vLzz7uBo3dCZtyLmMrOuisfLu54qoOYz2O+17424aTLiQ5wk3i1jjFTUU+R9No5Gy1QBVb8JvDq2C2uP4g8eZDv6JDOWJZf60Jv8CYn8azwaO/N5CY5/zMX9q1VmZi6sjKJgt8FyPYudHkhDR7MrnGkFTSAd7DRS3gffFP16sIg7PFeWf++jeDF8VrjMarjs66kAWgNpxRp5F6BG2VXf+uKI3+RQyQ2KrKCaUOAENxnqnfc8eOCd7wnwIC7VBHGK5irLWCuAZ1AsSQLbWViAzW0MUhvgNDocJ8vfRq6NUrLXMggJJnddKL8nmH7j3cUR27Jcll/8ZMQPnqn+FKakNuRUnrtZLuu6XEBNLwauiwgk+AV/RzE4TZC/rjf1nUXxxt2Nxu2so6YNl5kyVNdFIGuxTyDJlAvOfEvE+F5fmqr6d5KMFSjDOiiCPEgsWMlCyklgeRe0GlS3NeoFkaRd9b1/rCw/ApjvoZhzhFmC5PaIdw1sXR1Rl3ZJpMu5xEEiyUwPmxo2ArrlIK7GkbJ84Mqi+BZQH3L7xMufApAdpUO2NFsL4Gl5jSOkBQeM/M67VNGguPOYfqLpLWdQlkyryzK/bEynfkN8/raI5RCUnsWyPPcXZfme+yM+TYx9sohatdZjVze5HjeSPPl1OYBKFIMNEFBZupGpspXzLzHOEJdfibjfxBNFsY0M/Pm/qtXqsmQU79limUQna5DWLTDfzeN+jt8TpEGefDbPxsC3LMO4AZjm95DXivl5XiqK5Yf6/b/+y4g/WGArmCjHS0YaPEbn+0ZxzyYQd8nX5QBqoRtBrVWeZRjqd8HmKFl0jjHbgAVfwwj591i30OFC/WjHk63cBTUNBPH5TOcFXLDqb3k33SDI1EwzYHIykDh7b/Bg1xJWGwATTA4L9Q9yvOjTZfmnJyIeom5+zSvFWzGvRd04RZ3k5wH7t8ZQ6kkcBHXjVb9bcV25GHj5rTwecfJhFlZwc7ro0iEYO5Ss46MA+LwRtJqR63ECB+CZlvSC7RZFqgLemQonvaSYiCyhZlwAgYJzD5flgf0Rf8VSEUKT03eZeXoQsEXJVEEV0JqpNVttQt0nHp/8qsF48pTnp6hZWVv5tPQkUeQ1UHhRaaRmBnecgDAYP8qJ8h1XF8Xebfy+5HDJnx5gDqoeScPFvTZQ640DQI2OV4LMczKU91rMjWcuWy6zDwxKJw6V5YOgg5AE0p0s1PAYahAFtmanaQRTdjomir1FZrHcL/lab/Ml53gsoRgYFHWD+lQjpS41+Csngmuowazvxo1TOWeeY4aEW/gwPdZojDOjGqWgVu1ake6xS7UA+2oGw9DeYr/PlIDfUwAo7qe5nwJ6gdNiu6AkaDWY9bvfBFFW1sQWxFprOHqXxUzS5/X1AGoBdX6BrVlbg1uztwZYb0CQN4Y0YsT5zcHIQEGjUH6MMMqqVRvmWras7NHrVQyNv2G4ADtrZskumSVAglUHv28Er04niLWurFWz9xrE+k7U5V01IJeX6+KpU3L5XLP38QyWxWm0BncBVF0YfK6/mU4QHRzbWLfTjqbUc5dRBoERoM2C32rgTLsRvI0ifdmiTVmbXnVDN/34dURuLLcGZON9I+ACV7/7bLr6vc6zsSl2XmBrcGuAa4BqptXx5vXZq85XP2fk3+QPG/z/6toMLNuysU0bn/0mIMZtBMb4+qq/1wDW8d+4fwOBbyCQCPxfKr+dCwPOGKAAAAAASUVORK5CYII=;fontStyle=1;fontSize=15;" parent="MxffgctnnAdr2egR7Orp-52" vertex="1">
          <mxGeometry x="360" y="280" width="44" height="44" as="geometry" />
        </mxCell>
        <mxCell id="MxffgctnnAdr2egR7Orp-50" value="" style="endArrow=classic;html=1;rounded=0;strokeWidth=3;fontStyle=1;fontSize=15;exitX=0.008;exitY=-0.045;exitDx=0;exitDy=0;exitPerimeter=0;" parent="MxffgctnnAdr2egR7Orp-52" source="MxffgctnnAdr2egR7Orp-51" edge="1">
          <mxGeometry width="50" height="50" relative="1" as="geometry">
            <mxPoint x="430" y="330" as="sourcePoint" />
            <mxPoint x="560" y="270" as="targetPoint" />
          </mxGeometry>
        </mxCell>
      </root>
    </mxGraphModel>
  </diagram>
</mxfile>
